<?xml version="1.0" standalone="no"?>
<!DOCTYPE svg PUBLIC "-//W3C//DTD SVG 1.1//EN" "http://www.w3.org/Graphics/SVG/1.1/DTD/svg11.dtd" >
<svg xmlns="http://www.w3.org/2000/svg">
<metadata></metadata>
<defs>
<font id="OblikBoldRegular" horiz-adv-x="1189" >
<font-face units-per-em="2048" ascent="1638" descent="-410" />
<missing-glyph horiz-adv-x="616" />
<glyph horiz-adv-x="0" />
<glyph horiz-adv-x="2048" />
<glyph unicode=" "  horiz-adv-x="616" />
<glyph unicode="&#x09;" horiz-adv-x="616" />
<glyph unicode="&#xa0;" horiz-adv-x="616" />
<glyph unicode="!" horiz-adv-x="657" d="M195 1434h268l-31 -1086h-205zM201 0v258h256v-258h-256z" />
<glyph unicode="&#x22;" horiz-adv-x="808" d="M133 1434h180l-14 -439h-156zM496 1434h180l-14 -439h-156z" />
<glyph unicode="#" horiz-adv-x="1263" d="M72 428v182h211l30 219h-241v183h270l66 456h184l-68 -456h295l66 456h186l-65 -456h186v-183h-213l-33 -219h246v-182h-272l-64 -457h-190l69 457h-293l-67 -457h-187l68 457h-184zM469 610h291l33 219h-295z" />
<glyph unicode="$" horiz-adv-x="1138" d="M63 1063q0 81 38.5 155.5t101.5 129.5q111 92 291 106v176h149v-178q155 -13 338 -66v-249h-37q-121 48 -301 65v-334q69 -23 97 -33t81 -33.5t92 -49.5q81 -58 121.5 -146.5t40.5 -189.5q0 -89 -37.5 -168.5t-103.5 -134.5q-118 -98 -291 -125v-185h-149v174 q-195 0 -424 74v252h32q220 -76 392 -76v398q-121 36 -197 73q-110 56 -172 152t-62 213zM332 1069q0 -88 162 -149v282q-68 -11 -115 -43t-47 -90zM643 244q167 45 164 168q-2 111 -164 168v-336z" />
<glyph unicode="%" horiz-adv-x="1646" d="M133 1090q0 167 81 266.5t218 99.5t218 -100.5t81 -265.5t-81 -265t-218 -100t-218 100t-81 265zM289 1087q0 -93 37.5 -159t105.5 -66t105.5 66t37.5 159t-37.5 159.5t-105.5 66.5t-105.5 -66.5t-37.5 -159.5zM336 -27l799 1493h147l-793 -1493h-153zM915 342 q0 167 81 267t218 100t218 -101t81 -266t-81 -265t-218 -100t-218 100t-81 265zM1071 340q0 -93 37.5 -159t105.5 -66t106 66t38 159t-38 159t-106 66t-105.5 -66t-37.5 -159z" />
<glyph unicode="&#x26;" horiz-adv-x="1390" d="M115 420q0 133 71.5 238t190.5 178q0 4 -8 12q-107 137 -105 266q6 148 92 234q99 108 283 108q168 0 258 -104q40 -47 63.5 -111t20.5 -133q-2 -60 -18.5 -106.5t-52.5 -86.5t-66.5 -64.5t-89.5 -66.5l198 -243q19 55 19 143h237q-10 -204 -73 -362l266 -324h-328 l-98 115q-169 -136 -373 -136q-133 0 -243 52.5t-177 155t-67 235.5zM350 430q-4 -95 55.5 -156t157.5 -63q73 -3 146 18t116 66l-297 362q-37 -23 -54.5 -34.5t-45 -34.5t-41 -43t-24.5 -50t-13 -65zM518 1114q0 -12 2.5 -23.5t9 -24t11 -21.5t15.5 -23t16 -20t18 -20.5 t16 -18.5q79 44 102 67q37 35 37 78q3 49 -25.5 88.5t-80.5 42.5q-56 1 -88.5 -37t-32.5 -88z" />
<glyph unicode="'" horiz-adv-x="446" d="M133 1434h180l-14 -439h-156z" />
<glyph unicode="(" horiz-adv-x="751" d="M135 483q3 163 37 306t101.5 270.5t181.5 224.5t266 152v-172q-114 -76 -193.5 -213t-112.5 -280.5t-32 -287.5q0 -113 18.5 -223.5t56.5 -219t105.5 -201.5t157.5 -154v-181q-154 57 -270.5 157.5t-186 230t-102 278t-27.5 313.5z" />
<glyph unicode=")" horiz-adv-x="751" d="M31 -315q90 61 157.5 154t105.5 201.5t56.5 219t18.5 223.5q1 144 -32 287.5t-112.5 280.5t-193.5 213v172q152 -55 265.5 -152t181.5 -224.5t101.5 -270.5t36.5 -306q5 -165 -27.5 -313.5t-101.5 -278t-185.5 -230t-270.5 -157.5v181z" />
<glyph unicode="*" horiz-adv-x="1038" d="M133 989l264 109l-264 110l84 154l242 -164l-27 305h174l-26 -305l239 164l86 -154l-262 -110l262 -109l-86 -153l-239 161l24 -301h-174l29 301l-242 -161z" />
<glyph unicode="+" horiz-adv-x="1222" d="M133 616v187h387v387h182v-387h388v-187h-388v-385h-182v385h-387z" />
<glyph unicode="," horiz-adv-x="708" d="M92 -332l162 604h281l-267 -604h-176z" />
<glyph unicode="-" horiz-adv-x="985" d="M133 428v219h719v-219h-719z" />
<glyph unicode="." horiz-adv-x="663" d="M195 0v272h274v-272h-274z" />
<glyph unicode="/" horiz-adv-x="604" d="M10 -27l428 1491h156l-432 -1491h-152z" />
<glyph unicode="0" horiz-adv-x="1402" d="M92 717q0 336 166 537.5t442 201.5t443.5 -201.5t167.5 -537.5t-167.5 -538t-443.5 -202t-442 202t-166 538zM358 715q0 -233 92.5 -370.5t247.5 -137.5q157 0 249.5 137.5t92.5 370.5t-92.5 371.5t-249.5 138.5q-156 0 -248 -138t-92 -372z" />
<glyph unicode="1" horiz-adv-x="870" d="M51 1161l238 201q99 86 211 86q90 0 133 -52t43 -143v-1253h-260v1180l-213 -189z" />
<glyph unicode="2" horiz-adv-x="1015" d="M31 0v168l557 700q67 90 67 162q3 92 -69.5 146.5t-165.5 54.5q-182 0 -277 -86h-30v235q168 76 342 76q109 -2 205.5 -38.5t164.5 -108.5q50 -54 74.5 -128t24.5 -151q0 -80 -29.5 -159t-77.5 -134l-442 -512h547v-225h-891z" />
<glyph unicode="3" horiz-adv-x="1028" d="M31 51v238h32q73 -41 164 -66t174 -24q95 -2 175.5 62.5t80.5 160.5q0 63 -29.5 108.5t-80 69.5t-105.5 34.5t-118 10.5h-109v223h74q45 0 78.5 2t78 12t73 28t49 52t20.5 82q0 58 -35.5 103t-86 66.5t-104.5 21.5q-172 0 -272 -70h-33v230q166 61 314 61q71 0 139 -15 t130.5 -46.5t110 -76.5t75.5 -109.5t28 -141.5q0 -93 -54.5 -180t-144.5 -115q111 -34 191 -131.5t80 -218.5q0 -88 -30 -162t-81.5 -125.5t-122 -87.5t-151 -53t-168.5 -17q-158 0 -342 74z" />
<glyph unicode="4" horiz-adv-x="1148" d="M29 395q-37 72 2 140l542 817q63 96 205 96q82 0 128 -59t46 -142v-690h146v-235h-146v-322h-260v322h-530q-42 0 -78 20t-55 53zM303 557h389v584z" />
<glyph unicode="5" horiz-adv-x="1054" d="M72 49v250h32q129 -90 320 -90q124 0 200 72.5t76 199.5q0 69 -31.5 120.5t-85.5 79.5t-115.5 41t-131.5 13h-219v699h803v-226h-543v-252q213 0 344 -67q114 -61 178 -172t64 -246q0 -151 -83 -265.5t-214 -171.5t-285 -57q-117 0 -309 72z" />
<glyph unicode="6" horiz-adv-x="1210" d="M94 676q3 287 133 498q85 137 213 209t289 73q90 0 163 -20.5t161 -65.5v-229h-33q-58 42 -137.5 66t-155.5 24q-122 0 -215 -79.5t-129 -203.5q41 40 114.5 61t155.5 21q88 0 175.5 -36.5t152.5 -98.5q71 -74 109 -174t38 -211q0 -230 -147 -383q-68 -73 -165 -111.5 t-204 -38.5q-128 0 -238.5 62.5t-178.5 177.5q-108 179 -101 459zM358 492q0 -122 81 -207.5t202 -81.5q109 17 165 99t56 204q0 79 -28 146.5t-90 111t-148 39.5q-116 -6 -177 -92.5t-61 -218.5z" />
<glyph unicode="7" horiz-adv-x="917" d="M10 1208v226h688q132 0 174 -91q12 -25 12.5 -52.5t-6 -50.5t-20.5 -58l-496 -1182h-282l516 1208h-586z" />
<glyph unicode="8" horiz-adv-x="1304" d="M113 424q0 123 70 218.5t192 127.5q-61 16 -107 63.5t-67.5 106t-20.5 115.5q1 96 40.5 173.5t105 126.5t149.5 75t178 26q202 0 336 -108.5t137 -292.5q2 -99 -48 -178t-144 -107q118 -32 186.5 -125.5t71.5 -216.5q-7 -111 -53.5 -198.5t-120.5 -142t-165.5 -82.5 t-193.5 -28q-82 0 -160.5 18.5t-148.5 56.5t-122.5 90.5t-83.5 125t-31 156.5zM377 428q0 -109 77 -170t197 -61t198.5 61t78.5 170q0 103 -80 168.5t-197 65.5t-195.5 -65.5t-78.5 -168.5zM438 1042q0 -86 62 -140t153 -54t153 54t62 140q0 92 -61 143.5t-154 51.5 t-154 -51.5t-61 -143.5z" />
<glyph unicode="9" horiz-adv-x="1210" d="M84 924q0 230 147 383q68 72 164.5 110.5t204.5 38.5q128 0 239 -62t179 -177q107 -177 100 -459q-3 -287 -133 -498q-85 -137 -213 -209.5t-289 -73.5q-90 0 -162.5 20.5t-160.5 65.5v230h33q58 -42 137 -66t155 -24q123 0 215.5 79t128.5 203q-41 -40 -114.5 -61 t-155.5 -21q-88 0 -175 37t-153 99q-71 74 -109 174t-38 211zM350 928q0 -79 28 -146.5t90 -111t148 -39.5q116 6 177 92.5t61 218.5q0 122 -81 207.5t-202 81.5q-109 -17 -165 -99t-56 -204z" />
<glyph unicode=":" horiz-adv-x="663" d="M195 0v272h274v-272h-274zM195 799v274h274v-274h-274z" />
<glyph unicode=";" horiz-adv-x="708" d="M92 -332l162 604h281l-267 -604h-176zM260 799v274h275v-274h-275z" />
<glyph unicode="&#x3c;" horiz-adv-x="1165" d="M133 623v186l899 410v-205l-657 -295l657 -297v-205z" />
<glyph unicode="=" horiz-adv-x="1224" d="M133 438v185h959v-185h-959zM133 811v184h959v-184h-959z" />
<glyph unicode="&#x3e;" horiz-adv-x="1165" d="M133 217v205l658 297l-658 295v205l899 -410v-186z" />
<glyph unicode="?" horiz-adv-x="1017" d="M113 1114v234q187 108 348 108q167 0 295 -94q139 -114 139 -283q0 -95 -43.5 -178t-118.5 -133q-25 -19 -96 -55t-96 -60q-21 -19 -32 -47.5t-13 -50.5t-2 -57v-156h-240v182q7 139 53 217q11 19 22.5 34.5t29 30.5t25.5 23t33.5 23t30 18t37.5 20.5t35 18.5 q115 70 115 166q0 49 -33.5 82.5t-77 46.5t-90.5 13q-76 0 -150.5 -27t-129.5 -76h-41zM246 0v256h256v-256h-256z" />
<glyph unicode="@" horiz-adv-x="2134" d="M133 471q0 198 69.5 373.5t193 305.5t305.5 206t395 76q212 0 385 -75.5t286 -206.5t173.5 -305t60.5 -374q0 -252 -125 -471h-657v61q-96 -86 -248 -86q-145 0 -236.5 83t-91.5 227q6 115 73 194.5t193 100.5l310 51q-3 33 -27.5 58t-59 38t-67 19t-59.5 6 q-60 0 -128.5 -15.5t-119.5 -42.5h-29v213q157 45 281 45q66 0 124.5 -9.5t114 -33t95.5 -59.5t64 -91.5t24 -125.5v-516h350q80 160 80 354q0 172 -51.5 321t-147 261t-243 176.5t-328.5 64.5q-182 0 -337.5 -65t-261.5 -176t-165.5 -261.5t-59.5 -320.5q0 -169 57 -317 t161 -258t260.5 -175t345.5 -69q170 -6 321 49l60 -129q-164 -65 -377 -59q-222 4 -405 80.5t-304.5 205.5t-187.5 301.5t-66 370.5zM870 299q-1 -62 37.5 -89.5t102.5 -27.5q98 0 207 64v205q-36 -6 -117.5 -19t-122.5 -20q-51 -10 -79 -35.5t-28 -77.5z" />
<glyph unicode="A" horiz-adv-x="1396" d="M10 0l496 1323q21 58 74 92.5t116 34.5q64 0 115.5 -35t73.5 -92l501 -1323h-292l-123 334h-561l-125 -334h-275zM498 578h385l-193 536z" />
<glyph unicode="B" horiz-adv-x="1374" d="M184 0v1155q0 116 81 197.5t198 81.5h151h44.5h48t44.5 -1t48 -3t44 -5t47 -8.5t42 -12.5t44.5 -17t39.5 -23q84 -55 132 -136t48 -175q0 -102 -48 -181t-147 -104q261 -68 261 -334q0 -163 -109 -284q-80 -88 -191 -119t-257 -31h-521zM459 246h250q51 0 86 3.5t72 15.5 t59 34t36 60t15 92q-1 49 -18 84.5t-42.5 55t-67 31t-78.5 14.5t-89 3h-223v-393zM459 868h196q39 0 59.5 1t57 5t57 14t43 27t33 45.5t10.5 67.5q0 94 -60.5 127t-192.5 33h-140q-28 0 -45.5 -20.5t-17.5 -51.5v-248z" />
<glyph unicode="C" horiz-adv-x="1226" d="M92 725q0 141 46 276t138 240q191 215 517 215q174 -3 376 -74v-262h-32q-70 38 -165 61t-179 23q-194 3 -310 -133q-54 -67 -80 -161.5t-26 -192.5q0 -100 27 -196.5t83 -162.5q57 -65 138 -98t172 -31q83 0 177.5 23t164.5 61h37v-260q-202 -73 -377 -76 q-304 0 -484 177q-223 212 -223 571z" />
<glyph unicode="D" horiz-adv-x="1449" d="M184 0v1157q0 114 82 195.5t197 81.5h205q204 -2 343.5 -56.5t229.5 -193.5q121 -182 121 -455q0 -312 -148 -512q-92 -119 -224.5 -168t-301.5 -49h-504zM461 252h192q55 0 91.5 2.5t86 11t89 30t67.5 54.5q31 36 50.5 81t27.5 98t10 92.5t2 97.5q0 220 -63 325 q-25 45 -62 74t-85 42t-89.5 17.5t-97.5 4.5h-154q-28 0 -46.5 -19t-18.5 -45v-866z" />
<glyph unicode="E" horiz-adv-x="1208" d="M184 0v1157q0 114 81 195.5t196 81.5h717v-250h-652q-26 0 -45.5 -19t-19.5 -45v-246h530v-239h-530v-385h717v-250h-994z" />
<glyph unicode="F" horiz-adv-x="1191" d="M184 0v1157q0 114 82 195.5t197 81.5h719v-250h-656q-26 0 -45.5 -19t-19.5 -45v-248h530v-247h-530v-625h-277z" />
<glyph unicode="G" horiz-adv-x="1413" d="M92 717q0 268 139 465q94 137 239.5 204.5t326.5 69.5q198 0 411 -74v-254h-34q-74 38 -173.5 58t-191.5 20q-105 0 -195.5 -41t-148.5 -123q-43 -62 -65.5 -151.5t-22.5 -175.5q0 -231 120.5 -360.5t350.5 -129.5q86 0 156 21v276h-256v246h532v-721q-247 -67 -471 -70 q-348 0 -541 222q-176 202 -176 518z" />
<glyph unicode="H" horiz-adv-x="1540" d="M195 0v1434h276v-560h602v560h273v-1434h-273v625h-602v-625h-276z" />
<glyph unicode="I" horiz-adv-x="665" d="M195 0v1434h276v-1434h-276z" />
<glyph unicode="J" horiz-adv-x="696" d="M10 0h66q49 1 81.5 15t49.5 42.5t23 62.5t6 85v979h-160v250h436v-1176q0 -246 -101 -377t-327 -131h-74v250z" />
<glyph unicode="K" horiz-adv-x="1425" d="M195 0v1434h276v-566l539 566h356l-590 -590l660 -844h-351l-497 657l-117 -120v-537h-276z" />
<glyph unicode="L" horiz-adv-x="1017" d="M184 281v1153h277v-1119q0 -26 18.5 -45.5t44.5 -19.5h484v-250h-541q-117 0 -200 82.5t-83 198.5z" />
<glyph unicode="M" horiz-adv-x="1824" d="M164 0l65 1266q2 74 54.5 128.5t126.5 55.5q70 1 124.5 -40.5t77.5 -106.5l303 -918l293 918q46 145 193 145q82 0 135 -50t59 -134l66 -1264h-270l-41 965l-308 -965h-270l-309 946l-51 -946h-248z" />
<glyph unicode="N" horiz-adv-x="1564" d="M195 0v1262q0 75 45.5 131t119.5 57q122 0 201 -121l559 -876v981h250v-1434h-264l-662 1038v-1038h-249z" />
<glyph unicode="O" horiz-adv-x="1544" d="M94 717q0 333 189.5 536t488.5 203q197 0 351 -90.5t241.5 -259t87.5 -389.5q0 -166 -51 -305t-141 -234t-215.5 -148t-272.5 -53t-272.5 53t-215 148.5t-140 234t-50.5 304.5zM379 717q0 -225 106.5 -356.5t286.5 -131.5q181 0 288 131.5t107 356.5q0 207 -109.5 348 t-285.5 141q-180 0 -286.5 -132t-106.5 -357z" />
<glyph unicode="P" horiz-adv-x="1292" d="M184 0v1155q0 115 82 197t197 82h190q11 0 58 -1.5t62 -2t53.5 -4t61 -9t54 -15t59.5 -22.5q107 -52 163.5 -161t56.5 -236q0 -121 -46.5 -220t-144.5 -159q-138 -86 -375 -86h-194v-518h-277zM461 764h209q53 0 99 11t85 35t61.5 66.5t22.5 100.5q0 55 -12.5 93.5 t-34 62t-58.5 36.5t-76.5 17t-97.5 4h-163q-16 0 -24.5 -11t-9.5 -22.5t-1 -34.5v-358z" />
<glyph unicode="Q" horiz-adv-x="1540" d="M94 717q0 333 189.5 536t488.5 203q197 0 351 -90.5t241.5 -259t87.5 -389.5q0 -249 -111.5 -430.5t-302.5 -259.5q68 -103 105 -105q10 0 21 4t23.5 12t22.5 15.5t23.5 20t20 19l19 19l13.5 13.5l144 -168q-85 -81 -122 -107q-79 -55 -161 -55q-57 -1 -109.5 22.5 t-96 68.5t-75.5 89t-65 102h-29q-147 0 -272.5 53t-215 148.5t-140 234t-50.5 304.5zM379 717q0 -225 106.5 -356.5t286.5 -131.5q181 0 288 131.5t107 356.5q0 207 -109.5 348t-285.5 141q-180 0 -286.5 -132t-106.5 -357z" />
<glyph unicode="R" horiz-adv-x="1372" d="M184 0v1155q0 115 83 197t200 82h186q11 0 58.5 -1.5t63.5 -2t55 -4t61 -9t53.5 -15t59.5 -22.5q106 -52 162.5 -161.5t56.5 -235.5q-2 -121 -48 -220t-141 -159q-60 -35 -98 -45l399 -559h-336l-358 518h-180v-518h-277zM461 764h213q52 0 97.5 11t84.5 34t61.5 65 t22.5 99q0 121 -64.5 169t-213.5 48h-138q-26 0 -44.5 -20.5t-18.5 -47.5v-358z" />
<glyph unicode="S" horiz-adv-x="1138" d="M63 1063q0 81 38.5 155.5t101.5 129.5q127 105 332 108q199 0 446 -70v-249h-37q-75 29 -188 49t-205 20q-36 0 -71.5 -7t-70 -21.5t-56 -42.5t-21.5 -66q0 -22 9 -41.5t27.5 -35.5t36.5 -28.5t47.5 -25t48 -20t50 -18.5t43.5 -15q7 -2 40 -12.5t43 -14t39.5 -13.5 t42.5 -15.5t38 -15.5t41 -18.5t36.5 -20t38.5 -23.5q81 -58 121.5 -146.5t40.5 -189.5q0 -89 -37.5 -168.5t-103.5 -134.5q-164 -136 -438 -136q-197 0 -426 74v252h32q220 -76 396 -76q49 0 97 8t99 26.5t82.5 57.5t30.5 93q-2 118 -184 174q-15 5 -63.5 19t-71 21t-61 20 t-69.5 25.5t-61 26.5q-110 56 -172 152t-62 213z" />
<glyph unicode="T" horiz-adv-x="1085" d="M10 1184v250h1065v-250h-397v-1184h-277v1184h-391z" />
<glyph unicode="U" horiz-adv-x="1468" d="M174 621v813h277v-897q0 -146 53 -220q73 -90 241 -90q165 0 246 107q53 76 53 201v899h250v-813q0 -152 -20 -253t-88 -192q-77 -101 -198.5 -150t-254.5 -49q-147 0 -273 59.5t-198 170.5q-54 83 -71 183t-17 231z" />
<glyph unicode="V" horiz-adv-x="1310" d="M10 1434h295l361 -1088l368 1088h266l-458 -1317q-22 -60 -69.5 -96t-110.5 -37q-64 0 -116 36t-77 97z" />
<glyph unicode="W" horiz-adv-x="1826" d="M20 1434h283l244 -981l231 981h281l239 -992l248 992h260l-338 -1311q-15 -62 -65.5 -103t-114.5 -38q-64 1 -112.5 42.5t-63.5 104.5l-201 823l-188 -829q-14 -60 -61.5 -100t-110.5 -41q-68 -3 -120.5 39t-70.5 108z" />
<glyph unicode="X" horiz-adv-x="1370" d="M10 0l518 797l-415 637h323l258 -424l267 424h299l-416 -643l516 -791h-328l-358 578l-361 -578h-303z" />
<glyph unicode="Y" horiz-adv-x="1228" d="M10 1434h312l305 -625l307 625h285l-465 -885v-549h-277v549z" />
<glyph unicode="Z" horiz-adv-x="1134" d="M51 0v176l707 1008h-658v250h756q66 0 125 -28.5t84 -84.5q40 -93 -16 -199l-615 -872h647v-250h-1030z" />
<glyph unicode="[" horiz-adv-x="743" d="M195 -492v1926h518v-213h-273v-1500h273v-213h-518z" />
<glyph unicode="\" horiz-adv-x="604" d="M10 1464h156l428 -1491h-152z" />
<glyph unicode="]" horiz-adv-x="743" d="M31 -279h272v1500h-272v213h518v-1926h-518v213z" />
<glyph unicode="^" horiz-adv-x="1128" d="M133 754l338 741h186l338 -741h-204l-228 499l-225 -499h-205z" />
<glyph unicode="_" horiz-adv-x="1288" d="M-10 -276h1308v-185h-1308v185z" />
<glyph unicode="`" horiz-adv-x="651" d="M133 1458h207l178 -307h-158z" />
<glyph unicode="a" horiz-adv-x="1153" d="M84 328q-2 95 41.5 171.5t113 120.5t154.5 56l352 51q-4 48 -51 82t-98 46.5t-94 12.5q-70 0 -148 -17t-137 -46h-29v237q190 54 318 54q77 0 145.5 -11.5t132 -38.5t109.5 -68t75 -103.5t31 -141.5v-733h-249v98q-56 -59 -133 -91t-156 -32q-160 0 -266.5 98.5 t-110.5 254.5zM346 342q0 -70 45.5 -103.5t116.5 -33.5q108 0 231 74v241q-38 -7 -128.5 -20t-139.5 -23q-125 -24 -125 -135z" />
<glyph unicode="b" d="M154 238v1263h260v-459q85 54 207 54q112 0 208.5 -43t165.5 -123q106 -137 113 -377q0 -205 -80 -346q-134 -223 -442 -230h-174q-107 0 -182.5 76.5t-75.5 184.5zM414 268q0 -25 18 -42t43 -17h86q140 0 205 65q74 76 74 279q4 130 -47 213q-57 91 -197 98 q-69 0 -182 -26v-570z" />
<glyph unicode="c" horiz-adv-x="995" d="M82 537q0 244 142.5 401.5t377.5 157.5q152 0 330 -72v-231h-33q-47 37 -124.5 54t-156.5 17q-140 0 -204 -88.5t-64 -240.5q0 -140 69.5 -233t194.5 -93q178 0 289 61h31v-221q-148 -72 -324 -72q-225 0 -376.5 160t-151.5 400z" />
<glyph unicode="d" d="M80 553q7 238 115 377q69 80 165.5 123t208.5 43q122 0 207 -54v459h260v-1263q0 -108 -75.5 -184.5t-182.5 -76.5h-174q-308 7 -442 230q-82 145 -82 346zM350 553q0 -203 74 -279q65 -65 205 -65h86q25 0 43 17t18 42v570q-113 26 -182 26q-140 -7 -197 -98 q-51 -83 -47 -213z" />
<glyph unicode="e" horiz-adv-x="1167" d="M82 530q7 225 119 381q69 90 168 137.5t215 47.5q148 0 259 -69t167 -202q36 -90 46.5 -182.5t6.5 -208.5h-703q13 -81 65 -136.5t120 -78t147 -20.5q176 4 283 67h33v-243q-154 -46 -336 -46q-267 0 -426 144q-164 149 -164 409zM362 649h437q-9 104 -62 162t-149 59 q-98 0 -157.5 -62t-68.5 -159z" />
<glyph unicode="f" horiz-adv-x="704" d="M31 848v225h114v31q0 199 90 298t281 99q29 0 59 -4t49.5 -8.5t55.5 -13.5t55 -13v-229h-35q-75 42 -157 39q-58 0 -97.5 -34t-39.5 -99v-66h272v-225h-272v-848h-261v848h-114z" />
<glyph unicode="g" horiz-adv-x="1200" d="M82 518q0 208 82 348q69 117 186 172.5t266 57.5h166q108 0 186.5 -77.5t78.5 -184.5v-781q0 -281 -138 -412t-413 -133q-131 0 -316 68v225h33q114 -56 285 -63q121 0 204.5 64t83.5 165v62q-88 -52 -206 -52q-109 0 -209.5 42t-173.5 124q-115 146 -115 375zM350 518 q0 -143 53 -219q60 -96 195 -96q96 0 188 24v574q0 27 -18 45t-43 18h-92q-133 0 -205 -69q-32 -32 -50.5 -84.5t-22.5 -92.5t-5 -100z" />
<glyph unicode="h" horiz-adv-x="1265" d="M164 0v1501h260v-495q162 90 309 90q163 0 271 -112.5t108 -285.5v-698h-260v676q0 83 -40 134.5t-122 51.5q-63 0 -136.5 -24t-129.5 -60v-778h-260z" />
<glyph unicode="i" horiz-adv-x="589" d="M164 0v1073h260v-1073h-260zM164 1178v256h262v-256h-262z" />
<glyph unicode="j" horiz-adv-x="610" d="M-31 -260q117 0 167 46t50 161v901h-133v225h393v-1083q0 -251 -116 -366.5t-361 -115.5v232zM182 1178v256h262v-256h-262z" />
<glyph unicode="k" horiz-adv-x="1202" d="M164 0v1501h260v-772l381 344h364l-464 -401l487 -672h-322l-362 502l-84 -72v-430h-260z" />
<glyph unicode="l" horiz-adv-x="722" d="M154 379v1120h260v-1165q0 -65 39 -96t102 -31q60 -2 156 47h32v-229q-53 -18 -76 -25.5t-63 -15t-80 -7.5q-187 0 -278.5 103.5t-91.5 298.5z" />
<glyph unicode="m" horiz-adv-x="1681" d="M164 0v1073h254v-72q40 40 97 67.5t110 27.5q164 3 268 -123q136 125 270 125q165 0 264 -114.5t101 -289.5v-694h-260v657q0 39 -3.5 68t-15 61.5t-38 49.5t-66.5 16q-75 -2 -168 -104v-748h-256v657q0 30 -1.5 52.5t-8.5 51t-18.5 47t-34.5 31.5t-54 13 q-44 0 -92.5 -25.5t-87.5 -60.5v-766h-260z" />
<glyph unicode="n" horiz-adv-x="1265" d="M164 0v1073h252v-69q184 92 313 92q170 0 276.5 -110.5t106.5 -289.5v-696h-260v670q2 82 -39 134t-123 52q-63 0 -136.5 -25t-129.5 -63v-768h-260z" />
<glyph unicode="o" d="M82 537q0 254 142 406.5t372 152.5q229 0 369.5 -152.5t140.5 -406.5t-140 -407t-370 -153t-372 153t-142 407zM350 537q0 -150 67 -239t177 -89q111 0 177.5 89t66.5 239t-67 238.5t-177 88.5t-177 -88.5t-67 -238.5z" />
<glyph unicode="p" horiz-adv-x="1200" d="M164 -492v1326q0 107 75.5 183.5t182.5 76.5h174q308 -7 442 -230q80 -141 80 -346q-7 -242 -112 -377q-69 -80 -166 -123t-209 -43q-122 0 -207 54v-521h-260zM424 233q113 -26 182 -26q140 7 197 98q51 83 47 213q0 203 -74 279q-65 65 -205 65h-86q-25 0 -43 -17 t-18 -42v-570z" />
<glyph unicode="q" d="M82 518q0 205 80 346q134 223 442 230h174q107 0 182.5 -76.5t75.5 -183.5v-1326h-260v521q-85 -54 -207 -54q-112 0 -208.5 43t-165.5 123q-106 137 -113 377zM350 518q-4 -130 47 -213q57 -91 197 -98q69 0 182 26v570q0 25 -18 42t-43 17h-86q-140 0 -205 -65 q-74 -76 -74 -279z" />
<glyph unicode="r" horiz-adv-x="735" d="M164 0v1073h252v-69q182 92 350 92v-246h-35q-74 24 -156.5 6.5t-150.5 -59.5v-797h-260z" />
<glyph unicode="s" horiz-adv-x="950" d="M82 788q0 74 32.5 134.5t85.5 97.5t118 57t133 19q90 -1 160.5 -15t168.5 -43v-219h-35q-125 49 -262 49q-20 0 -42 -2.5t-50 -9t-45.5 -21.5t-17.5 -36q0 -23 32.5 -45.5t71.5 -34.5q27 -10 86.5 -30t105.5 -38t83 -37q58 -28 95 -76t51.5 -99t14.5 -109 q0 -72 -25.5 -131t-68.5 -99.5t-101.5 -68.5t-123 -41t-133.5 -13q-151 0 -324 54v229h33q61 -25 147 -41t154 -16q197 5 197 114q0 19 -11.5 35.5t-36 29.5t-39 19.5t-42.5 16.5q-27 10 -85 30.5t-99 37t-77 34.5q-72 37 -111.5 111t-39.5 157z" />
<glyph unicode="t" horiz-adv-x="714" d="M10 848v225h117v252h260v-252h275v-225h-275v-506q0 -66 39.5 -99.5t101.5 -33.5q13 0 28 2t25 3.5t28 8t24 8.5t27.5 11t23.5 10h41v-227q-139 -48 -227 -48q-187 0 -279 102t-92 296v473h-117z" />
<glyph unicode="u" horiz-adv-x="1198" d="M115 375v698h260v-672q-2 -82 39 -134t123 -52q63 0 136.5 25t129.5 63v770h260v-1073h-252v68q-186 -93 -313 -93q-167 0 -275 114.5t-108 285.5z" />
<glyph unicode="v" horiz-adv-x="1058" d="M10 1073h279l254 -760l260 760h246l-353 -977q-22 -54 -64.5 -84.5t-99.5 -31.5q-61 0 -106.5 29.5t-65.5 82.5z" />
<glyph unicode="w" horiz-adv-x="1546" d="M20 1073h263l211 -727l188 727h186l201 -751l213 751h244l-299 -975q-18 -57 -63.5 -87.5t-106.5 -30.5q-62 2 -109 32t-61 86l-117 469l-115 -465q-15 -56 -59.5 -88t-103.5 -34q-61 0 -111.5 32t-65.5 86z" />
<glyph unicode="x" horiz-adv-x="1142" d="M10 0l408 580l-348 493h317l203 -315l209 315h280l-352 -502l406 -571h-318l-258 397l-262 -397h-285z" />
<glyph unicode="y" horiz-adv-x="1134" d="M10 1073h285l305 -721l262 721h242l-473 -1304q-58 -149 -166.5 -205t-302.5 -56h-47v226h88t69.5 4.5t53.5 12.5t41.5 24.5t33 40t27.5 59.5l49 135z" />
<glyph unicode="z" horiz-adv-x="960" d="M51 0v147l514 701h-489v225h663q108 0 150 -69q22 -38 16 -84t-35 -84l-442 -611h481v-225h-858z" />
<glyph unicode="{" horiz-adv-x="868" d="M31 365v213h159q109 0 109 104v446q7 150 80 220q88 86 272 86h166v-213h-160q-53 0 -79 -21q-25 -22 -29 -80v-450q0 -56 -35 -115t-82 -84q53 -31 85 -85t32 -114v-444q0 -56 22 -78q22 -25 86 -33h160v-209h-166q-208 0 -293 109q-52 69 -59 195v446q0 56 -25.5 81.5 t-83.5 25.5h-159z" />
<glyph unicode="|" horiz-adv-x="559" d="M195 -492v1995h170v-1995h-170z" />
<glyph unicode="}" horiz-adv-x="868" d="M51 -283h160q64 8 86 33q22 22 22 78v444q0 60 32 114t85 85q-47 25 -82 84t-35 115v450q-4 59 -28 80q-26 21 -80 21h-160v213h166q184 0 272 -86q73 -70 80 -220v-446q0 -104 109 -104h160v-213h-160q-58 0 -83.5 -25.5t-25.5 -81.5v-446q-7 -126 -59 -195 q-85 -109 -293 -109h-166v209z" />
<glyph unicode="~" horiz-adv-x="1302" d="M133 539v204q121 136 287 136q52 0 111.5 -14.5t88.5 -25.5t99 -40q142 -54 186 -54q70 0 140.5 42.5t123.5 101.5v-219q-134 -127 -290 -127q-43 0 -91 11.5t-72 21t-79 32.5q-161 68 -238 68q-135 0 -266 -137z" />
<glyph unicode="&#xa1;" horiz-adv-x="657" d="M195 -360l30 1085h205l33 -1085h-268zM201 815v258h256v-258h-256z" />
<glyph unicode="&#xa2;" horiz-adv-x="995" d="M82 537q0 235 132 390t351 167v176h150v-183q98 -13 217 -63v-231h-33q-57 47 -184 65v-643q115 14 188 55h31v-221q-97 -49 -219 -65v-181h-150v177q-210 19 -346.5 173t-136.5 384zM350 535q0 -123 54.5 -211.5t160.5 -110.5v647q-215 -42 -215 -325z" />
<glyph unicode="&#xa3;" horiz-adv-x="1085" d="M51 250q39 0 59.5 1.5t42.5 8.5t34 21t22 38t18 62l33 225h-209v238h244l35 215q27 180 166.5 288.5t324.5 108.5q119 0 234 -53v-244h-43q-61 45 -174 45q-89 0 -155 -49.5t-81 -134.5l-27 -176h347v-238h-385l-29 -217q-6 -39 -31.5 -80t-56.5 -59h635v-250h-1002z" />
<glyph unicode="&#xa4;" horiz-adv-x="1314" d="M133 342l154 152q-72 109 -72 239.5t72 243.5l-154 149l133 131l152 -151q109 72 239.5 72t239.5 -72l154 151l131 -131l-152 -149q70 -113 70 -243.5t-70 -239.5l152 -152l-131 -129l-154 147q-109 -70 -239.5 -70t-239.5 70l-152 -147zM471 547q78 -79 188.5 -79 t186.5 79q78 78 78 187.5t-78 189.5q-76 80 -186.5 80t-188.5 -80t-78 -189.5t78 -187.5z" />
<glyph unicode="&#xa5;" horiz-adv-x="1228" d="M10 1434h312l305 -625l307 625h285l-285 -543h196v-160h-280l-66 -121h346v-159h-376v-451h-277v451h-379v159h346l-63 121h-283v160h199z" />
<glyph unicode="&#xa6;" horiz-adv-x="561" d="M195 233h172v-725h-172v725zM195 776v725h172v-725h-172z" />
<glyph unicode="&#xa7;" horiz-adv-x="1099" d="M92 -172h41q213 -88 338 -88q70 -1 133.5 21.5t108.5 75.5t45 126q0 114 -121 168q-39 18 -161.5 62.5t-184.5 82.5q-92 59 -144 148.5t-55 198.5q0 127 74 219v2q-74 106 -74 250q3 185 131 297t316 112q109 -1 196 -18t193 -55v-238h-45q-170 78 -312 78 q-51 0 -102.5 -17t-91 -55.5t-39.5 -89.5q-1 -38 8.5 -66.5t32 -49.5t44.5 -34t60 -30q42 -20 118.5 -47t138 -55t108.5 -64q160 -121 160 -324q0 -128 -72 -221q72 -109 72 -244q0 -116 -42.5 -206.5t-116.5 -146t-169 -84t-205 -28.5q-168 0 -383 74v246zM346 702 q-23 -57 -0.5 -111.5t76.5 -86.5q48 -30 100.5 -52.5t127.5 -49t102 -37.5q19 62 -5 117.5t-81 88.5q-52 33 -165 71.5t-155 59.5z" />
<glyph unicode="&#xa8;" horiz-adv-x="761" d="M92 1192v225h221v-225h-221zM444 1192v225h226v-225h-226z" />
<glyph unicode="&#xa9;" horiz-adv-x="1742" d="M133 715q0 151 58 288.5t157 236.5t235.5 157.5t286.5 58.5q151 0 288 -58.5t236 -157.5t157.5 -236.5t58.5 -288.5q0 -150 -58.5 -286.5t-157.5 -235.5t-236 -157.5t-288 -58.5q-150 0 -286.5 58.5t-235.5 157.5t-157 235.5t-58 286.5zM270 715q0 -122 47.5 -233 t127.5 -191t191.5 -127t233.5 -47q123 0 235 47t193 127t129 191t48 233q0 123 -48 234.5t-129 192t-193 128t-235 47.5q-122 0 -233.5 -47.5t-191.5 -128t-127.5 -192t-47.5 -234.5zM516 723q0 182 107 297q107 127 299 127q92 0 219 -43v-154h-21q-85 43 -198 47 q-123 0 -181 -73q-63 -77 -63 -207q0 -128 65 -207q66 -78 179 -78q125 8 200 53h21v-155q-107 -45 -219 -45q-174 0 -281 104q-127 121 -127 334z" />
<glyph unicode="&#xaa;" horiz-adv-x="862" d="M94 950q3 92 60 152t147 72l236 34q0 36 -32.5 59.5t-67 30.5t-66.5 7q-98 0 -193 -45h-20v161q119 39 219 39q67 0 122.5 -12t104.5 -38.5t76.5 -77t26.5 -120.5v-491h-166v61q-82 -82 -197 -82q-115 3 -185 73.5t-65 176.5zM268 950q0 -88 115 -88q70 0 152 47v158 q-127 -17 -185 -29q-82 -14 -82 -88z" />
<glyph unicode="&#xab;" horiz-adv-x="1292" d="M133 535l359 487h210l-331 -487l331 -490h-210zM590 535l358 487h211l-332 -487l332 -490h-211z" />
<glyph unicode="&#xac;" horiz-adv-x="1277" d="M133 809v186h991v-575h-186v389h-805z" />
<glyph unicode="&#xad;" horiz-adv-x="985" d="M133 428v219h719v-219h-719z" />
<glyph unicode="&#xae;" horiz-adv-x="1746" d="M133 715q0 151 58.5 288.5t157.5 236.5t236.5 157.5t288.5 58.5q150 0 287 -58.5t236.5 -157.5t158 -236.5t58.5 -288.5q0 -150 -58.5 -286.5t-158 -235.5t-236.5 -157.5t-287 -58.5q-151 0 -288.5 58.5t-236.5 157.5t-157.5 235.5t-58.5 286.5zM260 715 q0 -166 82.5 -308t224 -224.5t307.5 -82.5q125 0 239 49t196.5 131.5t131 196t48.5 238.5t-48.5 239t-131 196t-196.5 130.5t-239 48.5q-166 0 -307.5 -82t-224 -223.5t-82.5 -308.5zM557 311v674q0 68 47.5 116t114.5 48h125q9 0 26 -0.5t26.5 -0.5t24.5 -1t25 -2 t23.5 -3.5t25 -6t24.5 -8.5t25 -11q31 -15 56 -39.5t41 -55t24.5 -64t8.5 -68.5q0 -87 -43.5 -155.5t-120.5 -94.5l231 -328h-197l-208 305h-121v-305h-158zM715 758h141q50 0 94 18q67 33 60 115q0 30 -10.5 56.5t-30.5 37.5q-15 11 -40.5 16.5t-37.5 6t-43 0.5h-96 q-15 0 -26 -12t-11 -27v-211z" />
<glyph unicode="&#xaf;" horiz-adv-x="897" d="M92 1278v100h713v-100h-713z" />
<glyph unicode="&#xb0;" horiz-adv-x="1017" d="M133 1071q0 157 109 267t266 110t267 -110t110 -267t-110 -266t-267 -109t-266 109t-109 266zM295 1071q0 -91 61 -152t152 -61q92 0 153.5 61t61.5 152q0 92 -61.5 153.5t-153.5 61.5q-91 0 -152 -61.5t-61 -153.5z" />
<glyph unicode="&#xb1;" horiz-adv-x="1224" d="M133 0v184h959v-184h-959zM133 641v184h387v387h185v-387h387v-184h-387v-387h-185v387h-387z" />
<glyph unicode="&#xb2;" horiz-adv-x="614" d="M72 721v82l280 356q31 39 37 82q0 47 -30.5 70.5t-75.5 23.5q-47 0 -90 -12.5t-64 -34.5h-18v127q82 43 174 43q115 0 184 -78q51 -56 47 -139q0 -83 -53 -149l-217 -252h276v-119h-450z" />
<glyph unicode="&#xb3;" horiz-adv-x="651" d="M92 748v122h14q36 -21 85 -34t90 -13q47 0 87 32.5t40 80.5q0 111 -172 111h-54v112h39q152 0 152 92q0 40 -34 65t-77 25q-89 0 -141 -36h-19v122q82 31 160 31q97 0 169.5 -53.5t72.5 -147.5q0 -47 -27.5 -91t-70.5 -54q59 -19 94.5 -66.5t38.5 -109.5q0 -103 -78 -165 t-189 -62q-88 0 -180 39z" />
<glyph unicode="&#xb4;" horiz-adv-x="571" d="M92 1151l176 307h211l-231 -307h-156z" />
<glyph unicode="&#xb6;" horiz-adv-x="1177" d="M10 1047q0 161 112.5 274t272.5 113h742v-179h-113v-1747h-186v1747h-203v-1747h-186v1154h-54q-159 0 -272 113t-113 272z" />
<glyph unicode="&#xb7;" horiz-adv-x="663" d="M195 580v272h274v-272h-274z" />
<glyph unicode="&#xb8;" horiz-adv-x="768" d="M133 -412l90 121q73 -51 150 -51q102 0 102 78q0 37 -42 63t-93 34.5t-92 4.5l45 254l143 -26l-22 -125q211 -33 221 -201q0 -110 -75.5 -171t-182.5 -61q-126 0 -244 80z" />
<glyph unicode="&#xb9;" horiz-adv-x="557" d="M92 1309l121 104q49 45 102 45q44 -3 66 -31t22 -73v-633h-127v588l-106 -90z" />
<glyph unicode="&#xba;" horiz-adv-x="880" d="M92 1079q0 176 94.5 277.5t243.5 101.5q157 0 257.5 -101.5t100.5 -277.5t-96 -276.5t-252 -100.5t-252 100.5t-96 276.5zM268 1079q0 -106 43.5 -164.5t126.5 -58.5q84 0 129 59t45 164q0 106 -45 166t-129 60t-127 -59.5t-43 -166.5z" />
<glyph unicode="&#xbb;" horiz-adv-x="1292" d="M133 45l332 490l-332 487h211l358 -487l-358 -490h-211zM590 45l332 490l-332 487h211l358 -487l-358 -490h-211z" />
<glyph unicode="&#xbc;" horiz-adv-x="1298" d="M92 1309l121 104q49 45 102 45q44 -3 66 -31t22 -73v-633h-127v588l-106 -90zM170 -27l799 1493h141l-797 -1493h-143zM670 199q-21 35 4 73l272 414q28 47 94 47q41 0 67 -30.5t26 -71.5v-350h73v-119h-73v-162h-125v162h-269q-50 0 -69 37zM811 281h197v297z" />
<glyph unicode="&#xbd;" horiz-adv-x="1382" d="M92 1309l121 104q49 45 102 45q44 -3 66 -31t22 -73v-633h-127v588l-106 -90zM170 -27l799 1493h141l-797 -1493h-143zM840 0v82l280 356q31 39 37 82q0 47 -30.5 70.5t-75.5 23.5q-47 0 -90 -12.5t-64 -34.5h-18v127q82 43 174 43q115 0 184 -78q51 -56 47 -139 q0 -83 -53 -149l-217 -252h276v-119h-450z" />
<glyph unicode="&#xbe;" horiz-adv-x="1370" d="M92 748v122h14q36 -21 85 -34t90 -13q47 0 87 32.5t40 80.5q0 111 -172 111h-54v112h39q152 0 152 92q0 40 -34 65t-77 25q-89 0 -141 -36h-19v122q82 31 160 31q97 0 169.5 -53.5t72.5 -147.5q0 -47 -27.5 -91t-70.5 -54q59 -19 94.5 -66.5t38.5 -109.5q0 -103 -78 -165 t-189 -62q-88 0 -180 39zM242 -27l798 1493h142l-797 -1493h-143zM741 199q-21 35 4 73l273 414q28 47 94 47q41 0 66.5 -30t25.5 -72v-350h74v-119h-74v-162h-125v162h-268q-51 0 -70 37zM883 281h196v297z" />
<glyph unicode="&#xbf;" horiz-adv-x="1017" d="M123 -6q0 95 43.5 178t118.5 133q25 19 96 55t96 60q21 19 32 47.5t13 50.5t2 57v156h240v-182q-7 -139 -53 -217q-11 -19 -22.5 -34.5t-29 -30.5t-25.5 -23t-33.5 -23t-30 -18t-37.5 -20.5t-35 -18.5q-115 -70 -115 -166q0 -49 33.5 -82t77 -46t90.5 -13 q76 0 150.5 26.5t129.5 75.5h41v-233q-189 -109 -348 -109q-167 0 -295 94q-139 114 -139 283zM516 817v256h256v-256h-256z" />
<glyph unicode="&#xc0;" horiz-adv-x="1396" d="M-2 0l496 1323q21 58 74 92.5t116 34.5q64 0 115 -35t73 -92l502 -1323h-293l-123 334h-561l-125 -334h-274zM485 578h385l-192 536zM506 1819h207l178 -308h-158z" />
<glyph unicode="&#xc1;" horiz-adv-x="1396" d="M-2 0l496 1323q21 58 74 92.5t116 34.5q64 0 115 -35t73 -92l502 -1323h-293l-123 334h-561l-125 -334h-274zM485 578h385l-192 536zM504 1511l176 308h211l-232 -308h-155z" />
<glyph unicode="&#xc2;" horiz-adv-x="1396" d="M-2 0l496 1323q21 58 74 92.5t116 34.5q64 0 115 -35t73 -92l502 -1323h-293l-123 334h-561l-125 -334h-274zM416 1513l180 308h205l178 -308h-158l-125 166l-123 -166h-157zM485 578h385l-192 536z" />
<glyph unicode="&#xc3;" horiz-adv-x="1396" d="M-2 0l496 1323q21 58 74 92.5t116 34.5q64 0 115 -35t73 -92l502 -1323h-293l-123 334h-561l-125 -334h-274zM328 1630q93 159 241 162q77 0 158 -43q2 -1 16.5 -12t18 -13t16 -9.5t20 -9.5t19 -4.5t23.5 -2.5q25 0 44 12t28.5 25.5t23.5 40.5l133 -72 q-43 -79 -99.5 -120.5t-140.5 -41.5q-71 0 -147 37q-6 4 -28 18t-31 19t-27 10.5t-35 5.5q-25 0 -44.5 -11.5t-28.5 -23t-27 -38.5zM485 578h385l-192 536z" />
<glyph unicode="&#xc4;" horiz-adv-x="1396" d="M-2 0l496 1323q21 58 74 92.5t116 34.5q64 0 115 -35t73 -92l502 -1323h-293l-123 334h-561l-125 -334h-274zM410 1552v226h221v-226h-221zM485 578h385l-192 536zM762 1552v226h225v-226h-225z" />
<glyph unicode="&#xc5;" horiz-adv-x="1396" d="M-2 0l496 1323q21 58 74 92.5t116 34.5q64 0 115 -35t73 -92l502 -1323h-293l-123 334h-561l-125 -334h-274zM485 578h385l-192 536zM500 1667q0 83 56.5 140t139.5 57q82 0 140.5 -57t58.5 -140q0 -81 -58.5 -137.5t-140.5 -56.5q-83 0 -139.5 56t-56.5 138zM610 1667 q0 -36 25 -61t61 -25q37 0 61.5 24.5t24.5 61.5q0 36 -25 61t-61 25q-35 0 -60.5 -25.5t-25.5 -60.5z" />
<glyph unicode="&#xc6;" horiz-adv-x="1878" d="M-51 0l708 1280q39 69 109.5 111.5t153.5 42.5h927v-256h-598q-26 0 -44.5 -19t-18.5 -45v-240h473v-239h-473v-379h661v-256h-938v305h-487l-172 -305h-301zM557 551h352v616h-6z" />
<glyph unicode="&#xc7;" horiz-adv-x="1226" d="M92 725q0 141 46 276t138 240q191 215 517 215q99 -1 186.5 -19.5t189.5 -54.5v-262h-32q-70 38 -165 61t-179 23q-194 3 -310 -133q-36 -45 -60.5 -106.5t-35 -123t-10.5 -124.5q0 -100 27 -196.5t83 -162.5q57 -65 138 -98t172 -31q32 0 68 4t72.5 11t72 17.5 t68.5 23.5t61 28h37v-260q-163 -59 -297 -72l-7 -40q212 -33 222 -201q0 -74 -37.5 -128t-94.5 -79t-126 -25q-126 0 -244 80l90 121q73 -51 149 -51q103 0 103 78q0 28 -24.5 50.5t-60.5 34t-74 16t-68 1.5l25 141q-259 19 -417 175q-223 212 -223 571z" />
<glyph unicode="&#xc8;" horiz-adv-x="1208" d="M184 0v1157q0 114 81 195.5t196 81.5h717v-250h-652q-26 0 -45.5 -19t-19.5 -45v-246h530v-239h-530v-385h717v-250h-994zM487 1819h207l178 -308h-157z" />
<glyph unicode="&#xc9;" horiz-adv-x="1208" d="M184 0v1157q0 114 81 195.5t196 81.5h717v-250h-652q-26 0 -45.5 -19t-19.5 -45v-246h530v-239h-530v-385h717v-250h-994zM633 1511l176 308h211l-232 -308h-155z" />
<glyph unicode="&#xca;" horiz-adv-x="1208" d="M184 0v1157q0 114 81 195.5t196 81.5h717v-250h-652q-26 0 -45.5 -19t-19.5 -45v-246h530v-239h-530v-385h717v-250h-994zM424 1513l180 308h205l178 -308h-158l-124 166l-123 -166h-158z" />
<glyph unicode="&#xcb;" horiz-adv-x="1208" d="M184 0v1157q0 114 81 195.5t196 81.5h717v-250h-652q-26 0 -45.5 -19t-19.5 -45v-246h530v-239h-530v-385h717v-250h-994zM459 1552v226h221v-226h-221zM811 1552v226h225v-226h-225z" />
<glyph unicode="&#xcc;" horiz-adv-x="665" d="M139 1819h207l178 -308h-157zM195 0v1434h276v-1434h-276z" />
<glyph unicode="&#xcd;" horiz-adv-x="665" d="M139 1511l176 308h211l-231 -308h-156zM195 0v1434h276v-1434h-276z" />
<glyph unicode="&#xce;" horiz-adv-x="665" d="M51 1513l180 308h205l178 -308h-157l-125 166l-123 -166h-158zM195 0v1434h276v-1434h-276z" />
<glyph unicode="&#xcf;" horiz-adv-x="665" d="M45 1552v226h221v-226h-221zM195 0v1434h276v-1434h-276zM397 1552v226h226v-226h-226z" />
<glyph unicode="&#xd0;" horiz-adv-x="1472" d="M31 678v182h174v297q0 114 81.5 195.5t196.5 81.5h207q204 -2 344 -56.5t230 -193.5q120 -180 120 -455q0 -314 -147 -512q-92 -119 -224.5 -168t-301.5 -49h-506v678h-174zM481 252h195q55 0 91.5 2.5t86 11t89 30t67.5 54.5q31 36 50.5 81t27.5 98t10 92.5t2 97.5 q0 219 -64 325q-25 45 -62 74t-85 42t-89.5 17.5t-97.5 4.5h-155q-28 0 -47 -19t-19 -45v-258h350v-182h-350v-426z" />
<glyph unicode="&#xd1;" horiz-adv-x="1564" d="M195 0v1262q0 75 45.5 131t119.5 57q122 0 201 -121l559 -876v981h250v-1434h-264l-662 1038v-1038h-249zM412 1630q93 159 241 162q77 0 158 -43q2 -1 16.5 -12t18 -13t16 -9.5t20 -9.5t19 -4.5t23.5 -2.5q25 0 44 12t28.5 25.5t23.5 40.5l133 -72q-43 -79 -99.5 -120.5 t-140.5 -41.5q-71 0 -147 37q-6 4 -28 18t-31 19t-27 10.5t-35 5.5q-25 0 -44.5 -11.5t-28.5 -23t-27 -38.5z" />
<glyph unicode="&#xd2;" horiz-adv-x="1544" d="M94 717q0 333 189.5 536t488.5 203q197 0 351 -90.5t241.5 -259t87.5 -389.5q0 -166 -51 -305t-141 -234t-215.5 -148t-272.5 -53t-272.5 53t-215 148.5t-140 234t-50.5 304.5zM379 717q0 -225 106.5 -356.5t286.5 -131.5q181 0 288 131.5t107 356.5q0 207 -109.5 348 t-285.5 141q-180 0 -286.5 -132t-106.5 -357zM580 1819h206l179 -308h-158z" />
<glyph unicode="&#xd3;" horiz-adv-x="1544" d="M94 717q0 333 189.5 536t488.5 203q197 0 351 -90.5t241.5 -259t87.5 -389.5q0 -166 -51 -305t-141 -234t-215.5 -148t-272.5 -53t-272.5 53t-215 148.5t-140 234t-50.5 304.5zM379 717q0 -225 106.5 -356.5t286.5 -131.5q181 0 288 131.5t107 356.5q0 207 -109.5 348 t-285.5 141q-180 0 -286.5 -132t-106.5 -357zM657 1511l177 308h210l-231 -308h-156z" />
<glyph unicode="&#xd4;" horiz-adv-x="1544" d="M94 717q0 333 189.5 536t488.5 203q197 0 351 -90.5t241.5 -259t87.5 -389.5q0 -166 -51 -305t-141 -234t-215.5 -148t-272.5 -53t-272.5 53t-215 148.5t-140 234t-50.5 304.5zM379 717q0 -225 106.5 -356.5t286.5 -131.5q181 0 288 131.5t107 356.5q0 207 -109.5 348 t-285.5 141q-180 0 -286.5 -132t-106.5 -357zM489 1513l181 308h204l179 -308h-158l-125 166l-123 -166h-158z" />
<glyph unicode="&#xd5;" horiz-adv-x="1544" d="M94 717q0 333 189.5 536t488.5 203q197 0 351 -90.5t241.5 -259t87.5 -389.5q0 -166 -51 -305t-141 -234t-215.5 -148t-272.5 -53t-272.5 53t-215 148.5t-140 234t-50.5 304.5zM379 717q0 -225 106.5 -356.5t286.5 -131.5q181 0 288 131.5t107 356.5q0 207 -109.5 348 t-285.5 141q-180 0 -286.5 -132t-106.5 -357zM401 1630q93 159 242 162q77 0 158 -43q3 -2 16.5 -12t18 -13t16 -9.5t19 -9t19 -5t23.5 -2.5q36 0 56 19t41 59l133 -72q-43 -79 -99.5 -120.5t-140.5 -41.5q-71 0 -147 37q-6 4 -28 18t-31 19t-27 10.5t-35 5.5 q-25 0 -44.5 -11.5t-28.5 -23t-27 -38.5z" />
<glyph unicode="&#xd6;" horiz-adv-x="1544" d="M94 717q0 333 189.5 536t488.5 203q197 0 351 -90.5t241.5 -259t87.5 -389.5q0 -166 -51 -305t-141 -234t-215.5 -148t-272.5 -53t-272.5 53t-215 148.5t-140 234t-50.5 304.5zM379 717q0 -225 106.5 -356.5t286.5 -131.5q181 0 288 131.5t107 356.5q0 207 -109.5 348 t-285.5 141q-180 0 -286.5 -132t-106.5 -357zM483 1552v226h222v-226h-222zM836 1552v226h225v-226h-225z" />
<glyph unicode="&#xd7;" horiz-adv-x="1210" d="M174 412l301 299l-301 299l129 129l299 -299l301 299l131 -131l-299 -299l301 -301l-129 -129l-301 301l-301 -301z" />
<glyph unicode="&#xd8;" horiz-adv-x="1619" d="M82 104l170 170q-117 188 -117 443q0 333 189.5 536t488.5 203q275 0 455 -168l159 160l111 -115l-168 -168q123 -188 123 -448q0 -166 -51 -305t-141 -234t-215.5 -148t-272.5 -53q-274 0 -459 173l-159 -160zM420 717q0 -130 39 -236l614 613q-109 112 -260 112 q-180 0 -286.5 -132t-106.5 -357zM545 340q105 -111 268 -111q181 0 288 131.5t107 356.5q0 130 -47 239z" />
<glyph unicode="&#xd9;" horiz-adv-x="1468" d="M174 621v813h277v-897q0 -146 53 -220q73 -90 241 -90q165 0 246 107q53 76 53 201v899h250v-813q0 -152 -20 -253t-88 -192q-77 -101 -198.5 -150t-254.5 -49q-147 0 -273 59.5t-198 170.5q-54 83 -71 183t-17 231zM541 1819h207l178 -308h-158z" />
<glyph unicode="&#xda;" horiz-adv-x="1468" d="M174 621v813h277v-897q0 -146 53 -220q73 -90 241 -90q165 0 246 107q53 76 53 201v899h250v-813q0 -152 -20 -253t-88 -192q-77 -101 -198.5 -150t-254.5 -49q-147 0 -273 59.5t-198 170.5q-54 83 -71 183t-17 231zM594 1511l176 308h211l-231 -308h-156z" />
<glyph unicode="&#xdb;" horiz-adv-x="1468" d="M174 621v813h277v-897q0 -146 53 -220q73 -90 241 -90q165 0 246 107q53 76 53 201v899h250v-813q0 -152 -20 -253t-88 -192q-77 -101 -198.5 -150t-254.5 -49q-147 0 -273 59.5t-198 170.5q-54 83 -71 183t-17 231zM453 1513l180 308h205l178 -308h-158l-125 166 l-123 -166h-157z" />
<glyph unicode="&#xdc;" horiz-adv-x="1468" d="M174 621v813h277v-897q0 -146 53 -220q73 -90 241 -90q165 0 246 107q53 76 53 201v899h250v-813q0 -152 -20 -253t-88 -192q-77 -101 -198.5 -150t-254.5 -49q-147 0 -273 59.5t-198 170.5q-54 83 -71 183t-17 231zM444 1552v226h222v-226h-222zM797 1552v226h225v-226 h-225z" />
<glyph unicode="&#xdd;" horiz-adv-x="1228" d="M10 1434h312l305 -625l307 625h285l-465 -885v-549h-277v549zM420 1511l176 308h211l-232 -308h-155z" />
<glyph unicode="&#xde;" horiz-adv-x="1265" d="M195 0v1434h270v-258h162q16 -1 85 -4.5t95 -6.5t75.5 -14.5t90.5 -30.5q107 -55 164 -163.5t55 -233.5q0 -257 -188 -379q-79 -49 -169.5 -66.5t-203.5 -17.5h-166v-260h-270zM465 504h182q102 0 162 33q107 47 100 194q0 49 -17.5 95t-51.5 69q-12 8 -25.5 14.5 t-30 10.5t-29 6t-33 3t-30 1h-32.5h-29h-166v-426z" />
<glyph unicode="&#xdf;" horiz-adv-x="1167" d="M154 0v1090q3 91 34.5 173t92.5 136q60 53 147.5 79.5t175.5 24.5q84 1 160.5 -24t137 -73t96.5 -126t36 -174q0 -98 -60 -183.5t-138 -109.5q125 -41 187 -142.5t62 -240.5q0 -126 -66 -231.5t-175 -164.5t-234 -59q-69 0 -127 17v225h41q32 -12 72 -12q103 3 162 70.5 t59 175.5q1 108 -77.5 168t-186.5 65h-23v229h21q213 4 213 189q-4 167 -168 170q-78 1 -128.5 -56t-53.5 -143v-1073h-260z" />
<glyph unicode="&#xe0;" horiz-adv-x="1153" d="M84 328q-2 95 41.5 171.5t113 120.5t154.5 56l352 51q-4 48 -51 82t-98 46.5t-94 12.5q-70 0 -148 -17t-137 -46h-29v237q190 54 318 54q77 0 145.5 -11.5t132 -38.5t109.5 -68t75 -103.5t31 -141.5v-733h-249v98q-56 -59 -133 -91t-156 -32q-160 0 -266.5 98.5 t-110.5 254.5zM346 342q0 -70 45.5 -103.5t116.5 -33.5q108 0 231 74v241q-38 -7 -128.5 -20t-139.5 -23q-125 -24 -125 -135zM383 1458h207l178 -307h-158z" />
<glyph unicode="&#xe1;" horiz-adv-x="1153" d="M84 328q-2 95 41.5 171.5t113 120.5t154.5 56l352 51q-4 48 -51 82t-98 46.5t-94 12.5q-70 0 -148 -17t-137 -46h-29v237q190 54 318 54q77 0 145.5 -11.5t132 -38.5t109.5 -68t75 -103.5t31 -141.5v-733h-249v98q-56 -59 -133 -91t-156 -32q-160 0 -266.5 98.5 t-110.5 254.5zM346 342q0 -70 45.5 -103.5t116.5 -33.5q108 0 231 74v241q-38 -7 -128.5 -20t-139.5 -23q-125 -24 -125 -135zM383 1151l176 307h211l-231 -307h-156z" />
<glyph unicode="&#xe2;" horiz-adv-x="1153" d="M84 328q-2 95 41.5 171.5t113 120.5t154.5 56l352 51q-4 48 -51 82t-98 46.5t-94 12.5q-70 0 -148 -17t-137 -46h-29v237q190 54 318 54q77 0 145.5 -11.5t132 -38.5t109.5 -68t75 -103.5t31 -141.5v-733h-249v98q-56 -59 -133 -91t-156 -32q-160 0 -266.5 98.5 t-110.5 254.5zM295 1153l180 307h205l178 -307h-158l-125 166l-122 -166h-158zM346 342q0 -70 45.5 -103.5t116.5 -33.5q108 0 231 74v241q-38 -7 -128.5 -20t-139.5 -23q-125 -24 -125 -135z" />
<glyph unicode="&#xe3;" horiz-adv-x="1153" d="M84 328q-2 95 41.5 171.5t113 120.5t154.5 56l352 51q-4 48 -51 82t-98 46.5t-94 12.5q-70 0 -148 -17t-137 -46h-29v237q190 54 318 54q77 0 145.5 -11.5t132 -38.5t109.5 -68t75 -103.5t31 -141.5v-733h-249v98q-56 -59 -133 -91t-156 -32q-160 0 -266.5 98.5 t-110.5 254.5zM205 1270q93 159 241 162q77 0 158 -43q4 -3 16.5 -12.5t17.5 -12.5t16.5 -10t19.5 -9.5t19.5 -5t23.5 -2.5q25 0 44 12t28.5 25.5t23.5 40.5l133 -72q-43 -79 -99 -120t-140 -41q-72 0 -148 37q-6 4 -28 18t-31 19t-27 10.5t-35 5.5q-25 0 -44.5 -12 t-28.5 -23t-27 -39zM346 342q0 -70 45.5 -103.5t116.5 -33.5q108 0 231 74v241q-38 -7 -128.5 -20t-139.5 -23q-125 -24 -125 -135z" />
<glyph unicode="&#xe4;" horiz-adv-x="1153" d="M84 328q-2 95 41.5 171.5t113 120.5t154.5 56l352 51q-4 48 -51 82t-98 46.5t-94 12.5q-70 0 -148 -17t-137 -46h-29v237q190 54 318 54q77 0 145.5 -11.5t132 -38.5t109.5 -68t75 -103.5t31 -141.5v-733h-249v98q-56 -59 -133 -91t-156 -32q-160 0 -266.5 98.5 t-110.5 254.5zM287 1192v225h221v-225h-221zM346 342q0 -70 45.5 -103.5t116.5 -33.5q108 0 231 74v241q-38 -7 -128.5 -20t-139.5 -23q-125 -24 -125 -135zM639 1192v225h225v-225h-225z" />
<glyph unicode="&#xe5;" horiz-adv-x="1153" d="M84 328q-2 95 41.5 171.5t113 120.5t154.5 56l352 51q-4 48 -51 82t-98 46.5t-94 12.5q-70 0 -148 -17t-137 -46h-29v237q190 54 318 54q77 0 145.5 -11.5t132 -38.5t109.5 -68t75 -103.5t31 -141.5v-733h-249v98q-56 -59 -133 -91t-156 -32q-160 0 -266.5 98.5 t-110.5 254.5zM346 342q0 -70 45.5 -103.5t116.5 -33.5q108 0 231 74v241q-38 -7 -128.5 -20t-139.5 -23q-125 -24 -125 -135zM379 1307q0 83 56.5 139.5t139.5 56.5q82 0 140.5 -56.5t58.5 -139.5q0 -81 -58.5 -138t-140.5 -57q-83 0 -139.5 56.5t-56.5 138.5zM489 1307 q0 -36 25 -61t61 -25q37 0 62 24.5t25 61.5q0 35 -25 60.5t-62 25.5q-35 0 -60.5 -25.5t-25.5 -60.5z" />
<glyph unicode="&#xe6;" horiz-adv-x="1775" d="M84 328q-2 95 41.5 171.5t113 120.5t154.5 56l352 51q-4 48 -51 82t-98 46.5t-94 12.5q-70 0 -148 -17t-137 -46h-29v237q190 54 318 54q250 0 375 -138q114 138 311 138q148 0 259 -69t167 -202q36 -90 46.5 -182.5t6.5 -208.5h-702q13 -81 64.5 -136.5t119.5 -78 t147 -20.5q176 4 283 67h33v-243q-154 -46 -336 -46q-244 0 -408 148q-76 -61 -186.5 -105t-224.5 -45q-160 -2 -266.5 97.5t-110.5 255.5zM346 342q0 -70 45.5 -103.5t116.5 -33.5q108 0 231 74q-46 100 -49 233q-13 -2 -94 -14.5t-125 -20.5q-125 -24 -125 -135zM971 649 h436q-9 104 -62 162t-149 59q-97 0 -156.5 -62t-68.5 -159z" />
<glyph unicode="&#xe7;" horiz-adv-x="995" d="M82 537q0 244 142.5 401.5t377.5 157.5q152 0 330 -72v-231h-33q-47 37 -124.5 54t-156.5 17q-140 0 -204 -88.5t-64 -240.5q0 -140 69.5 -233t194.5 -93q178 0 289 61h31v-221q-109 -53 -228 -67l-8 -41q212 -33 222 -201q0 -110 -75.5 -171t-182.5 -61q-126 0 -244 80 l90 121q73 -51 149 -51q103 0 103 78q0 37 -42 63t-93.5 34.5t-92.5 4.5l26 141q-136 13 -244.5 88t-170 198t-61.5 272z" />
<glyph unicode="&#xe8;" horiz-adv-x="1167" d="M82 530q7 225 119 381q69 90 168 137.5t215 47.5q148 0 259 -69t167 -202q36 -90 46.5 -182.5t6.5 -208.5h-703q13 -81 65 -136.5t120 -78t147 -20.5q176 4 283 67h33v-243q-154 -46 -336 -46q-267 0 -426 144q-164 149 -164 409zM362 649h437q-9 104 -62 162t-149 59 q-98 0 -157.5 -62t-68.5 -159zM391 1458h207l178 -307h-158z" />
<glyph unicode="&#xe9;" horiz-adv-x="1167" d="M82 530q7 225 119 381q69 90 168 137.5t215 47.5q148 0 259 -69t167 -202q36 -90 46.5 -182.5t6.5 -208.5h-703q13 -81 65 -136.5t120 -78t147 -20.5q176 4 283 67h33v-243q-154 -46 -336 -46q-267 0 -426 144q-164 149 -164 409zM362 649h437q-9 104 -62 162t-149 59 q-98 0 -157.5 -62t-68.5 -159zM438 1151l176 307h211l-231 -307h-156z" />
<glyph unicode="&#xea;" horiz-adv-x="1167" d="M82 530q7 225 119 381q69 90 168 137.5t215 47.5q148 0 259 -69t167 -202q36 -90 46.5 -182.5t6.5 -208.5h-703q13 -81 65 -136.5t120 -78t147 -20.5q176 4 283 67h33v-243q-154 -46 -336 -46q-267 0 -426 144q-164 149 -164 409zM301 1153l180 307h205l178 -307h-157 l-125 166l-123 -166h-158zM362 649h437q-9 104 -62 162t-149 59q-98 0 -157.5 -62t-68.5 -159z" />
<glyph unicode="&#xeb;" horiz-adv-x="1167" d="M82 530q7 225 119 381q69 90 168 137.5t215 47.5q148 0 259 -69t167 -202q36 -90 46.5 -182.5t6.5 -208.5h-703q13 -81 65 -136.5t120 -78t147 -20.5q176 4 283 67h33v-243q-154 -46 -336 -46q-267 0 -426 144q-164 149 -164 409zM295 1192v225h221v-225h-221zM362 649 h437q-9 104 -62 162t-149 59q-98 0 -157.5 -62t-68.5 -159zM647 1192v225h225v-225h-225z" />
<glyph unicode="&#xec;" horiz-adv-x="587" d="M102 1458h207l178 -307h-157zM164 0v1073h260v-1073h-260z" />
<glyph unicode="&#xed;" horiz-adv-x="587" d="M100 1151l176 307h211l-231 -307h-156zM164 0v1073h260v-1073h-260z" />
<glyph unicode="&#xee;" horiz-adv-x="587" d="M12 1153l181 307h204l178 -307h-157l-125 166l-123 -166h-158zM164 0v1073h260v-1073h-260z" />
<glyph unicode="&#xef;" horiz-adv-x="587" d="M6 1192v225h221v-225h-221zM164 0v1073h260v-1073h-260zM358 1192v225h226v-225h-226z" />
<glyph unicode="&#xf0;" horiz-adv-x="1261" d="M102 524q0 219 115 375q67 79 162 127t207 57q115 0 159 -41q-63 97 -176 189l-299 -109l-49 135l213 78q-172 113 -313 162h434q58 -33 111 -74l213 76l53 -137l-139 -51q162 -154 259.5 -361.5t94.5 -431.5q0 -105 -37 -201.5t-102.5 -171t-164.5 -119t-214 -44.5 q-145 0 -263.5 63t-185.5 180q-78 135 -78 299zM360 526q0 -126 72.5 -217.5t198.5 -91.5q122 0 191 95.5t69 226.5q0 84 -27 154t-89.5 117.5t-151.5 47.5q-86 0 -147.5 -49t-88.5 -122t-27 -161z" />
<glyph unicode="&#xf1;" horiz-adv-x="1265" d="M164 0v1073h252v-69q184 92 313 92q170 0 276.5 -110.5t106.5 -289.5v-696h-260v670q2 82 -39 134t-123 52q-63 0 -136.5 -25t-129.5 -63v-768h-260zM262 1270q93 159 242 162q77 0 158 -43q5 -3 17 -12t17.5 -13t16 -10.5t18.5 -9t19.5 -5t23.5 -2.5q25 0 44 12 t28.5 25.5t23.5 40.5l134 -72q-43 -79 -99 -120t-141 -41q-72 0 -148 37q-7 4 -28 18t-30.5 19t-27 10.5t-34.5 5.5q-25 0 -44.5 -11.5t-29 -23.5t-27.5 -39z" />
<glyph unicode="&#xf2;" d="M82 537q0 254 142 406.5t372 152.5q229 0 369.5 -152.5t140.5 -406.5t-140 -407t-370 -153t-372 153t-142 407zM350 537q0 -150 67 -239t177 -89q111 0 177.5 89t66.5 239t-67 238.5t-177 88.5t-177 -88.5t-67 -238.5zM401 1458h207l178 -307h-157z" />
<glyph unicode="&#xf3;" d="M82 537q0 254 142 406.5t372 152.5q229 0 369.5 -152.5t140.5 -406.5t-140 -407t-370 -153t-372 153t-142 407zM350 537q0 -150 67 -239t177 -89q111 0 177.5 89t66.5 239t-67 238.5t-177 88.5t-177 -88.5t-67 -238.5zM401 1151l177 307h210l-231 -307h-156z" />
<glyph unicode="&#xf4;" d="M82 537q0 254 142 406.5t372 152.5q229 0 369.5 -152.5t140.5 -406.5t-140 -407t-370 -153t-372 153t-142 407zM313 1153l181 307h204l179 -307h-158l-125 166l-123 -166h-158zM350 537q0 -150 67 -239t177 -89q111 0 177.5 89t66.5 239t-67 238.5t-177 88.5t-177 -88.5 t-67 -238.5z" />
<glyph unicode="&#xf5;" d="M82 537q0 254 142 406.5t372 152.5q229 0 369.5 -152.5t140.5 -406.5t-140 -407t-370 -153t-372 153t-142 407zM223 1270q93 159 242 162q77 0 158 -43q5 -3 17 -12t17.5 -13t16 -10.5t18.5 -9t19.5 -5t23.5 -2.5q25 0 44 12t28.5 25.5t23.5 40.5l134 -72 q-43 -79 -99 -120t-141 -41q-71 0 -147 37q-6 4 -28 18t-31 19t-27 10.5t-35 5.5q-25 0 -44.5 -11.5t-29 -23.5t-27.5 -39zM350 537q0 -150 67 -239t177 -89q111 0 177.5 89t66.5 239t-67 238.5t-177 88.5t-177 -88.5t-67 -238.5z" />
<glyph unicode="&#xf6;" d="M82 537q0 254 142 406.5t372 152.5q229 0 369.5 -152.5t140.5 -406.5t-140 -407t-370 -153t-372 153t-142 407zM305 1192v225h221v-225h-221zM350 537q0 -150 67 -239t177 -89q111 0 177.5 89t66.5 239t-67 238.5t-177 88.5t-177 -88.5t-67 -238.5zM657 1192v225h226 v-225h-226z" />
<glyph unicode="&#xf7;" horiz-adv-x="1222" d="M133 444v183h957v-183h-957zM475 0v274h273v-274h-273zM475 803v270h273v-270h-273z" />
<glyph unicode="&#xf8;" horiz-adv-x="1253" d="M82 96l123 123q-78 137 -78 318q0 254 142 406.5t372 152.5q193 0 328 -113l100 100l102 -104l-106 -107q86 -141 86 -335q0 -254 -140 -407t-370 -153q-207 0 -344 125l-111 -110zM395 537q0 -58 13 -115l380 381q-64 61 -149 61q-110 0 -177 -88.5t-67 -238.5zM477 283 q65 -74 162 -74q111 0 177.5 89t66.5 239q0 70 -19 135z" />
<glyph unicode="&#xf9;" horiz-adv-x="1198" d="M115 375v698h260v-672q-2 -82 39 -134t123 -52q63 0 136.5 25t129.5 63v770h260v-1073h-252v68q-186 -93 -313 -93q-167 0 -275 114.5t-108 285.5zM406 1458h206l179 -307h-158z" />
<glyph unicode="&#xfa;" horiz-adv-x="1198" d="M115 375v698h260v-672q-2 -82 39 -134t123 -52q63 0 136.5 25t129.5 63v770h260v-1073h-252v68q-186 -93 -313 -93q-167 0 -275 114.5t-108 285.5zM406 1151l176 307h211l-232 -307h-155z" />
<glyph unicode="&#xfb;" horiz-adv-x="1198" d="M115 375v698h260v-672q-2 -82 39 -134t123 -52q63 0 136.5 25t129.5 63v770h260v-1073h-252v68q-186 -93 -313 -93q-167 0 -275 114.5t-108 285.5zM317 1153l181 307h204l179 -307h-158l-125 166l-123 -166h-158z" />
<glyph unicode="&#xfc;" horiz-adv-x="1198" d="M115 375v698h260v-672q-2 -82 39 -134t123 -52q63 0 136.5 25t129.5 63v770h260v-1073h-252v68q-186 -93 -313 -93q-167 0 -275 114.5t-108 285.5zM309 1192v225h221v-225h-221zM662 1192v225h225v-225h-225z" />
<glyph unicode="&#xfd;" horiz-adv-x="1134" d="M10 1073h285l305 -721l262 721h242l-473 -1304q-58 -149 -166.5 -205t-302.5 -56h-47v226h88t69.5 4.5t53.5 12.5t41.5 24.5t33 40t27.5 59.5l49 135zM373 1151l176 307h211l-232 -307h-155z" />
<glyph unicode="&#xfe;" horiz-adv-x="1179" d="M164 -479v1976h246v-463q94 56 219 56q106 -5 199.5 -48t156.5 -122q111 -137 111 -369q0 -258 -111 -401q-63 -78 -156.5 -120.5t-199.5 -47.5q-130 0 -219 53v-514h-246zM410 246q109 -25 188 -25q132 0 195 94q47 78 47 222q0 141 -47 217q-65 94 -195 94 q-70 0 -188 -27v-575z" />
<glyph unicode="&#xff;" horiz-adv-x="1134" d="M10 1073h285l305 -721l262 721h242l-473 -1304q-58 -149 -166.5 -205t-302.5 -56h-47v226h88t69.5 4.5t53.5 12.5t41.5 24.5t33 40t27.5 59.5l49 135zM303 1192v225h221v-225h-221zM655 1192v225h226v-225h-226z" />
<glyph unicode="&#x152;" horiz-adv-x="2027" d="M94 709q-3 310 156 520q81 106 207.5 166.5t253.5 60.5q116 0 223.5 -42.5t175.5 -125.5q41 78 100 112t166 34h621v-256h-596q-28 0 -47 -19t-19 -45v-240h475v-239h-475v-381h662v-254h-934v104q-68 -63 -160.5 -95t-191.5 -32q-125 2 -240.5 54t-196.5 145 q-92 106 -137 245.5t-43 287.5zM379 702q0 -68 12.5 -133.5t40 -127.5t66.5 -108.5t97.5 -75t127.5 -28.5q77 3 138 35.5t98 81.5t61 115.5t33.5 131.5t9.5 136q-4 73 -16 137.5t-37.5 128.5t-63 109.5t-96.5 73t-133 26.5q-75 0 -135 -33t-97 -85t-61.5 -120t-34.5 -133.5 t-10 -130.5z" />
<glyph unicode="&#x153;" horiz-adv-x="1908" d="M82 537q0 254 142 406.5t372 152.5q112 0 210 -45.5t165 -130.5q131 176 354 176q148 0 259 -69t167 -202q36 -90 46.5 -182.5t6.5 -208.5h-702q13 -81 65 -136.5t120 -78t147 -20.5q175 4 282 67h33v-243q-154 -46 -336 -46q-276 0 -440 177q-125 -177 -377 -177 q-230 0 -372 153t-142 407zM350 537q0 -150 67 -239t177 -89q111 0 177.5 89t66.5 239t-67 238.5t-177 88.5t-177 -88.5t-67 -238.5zM1104 649h436q-9 104 -62 162t-149 59q-97 0 -156.5 -62t-68.5 -159z" />
<glyph unicode="&#x178;" horiz-adv-x="1228" d="M10 1434h312l305 -625l307 625h285l-465 -885v-549h-277v549zM326 1552v226h221v-226h-221zM678 1552v226h225v-226h-225z" />
<glyph unicode="&#x2c6;" horiz-adv-x="747" d="M92 1153l180 307h205l178 -307h-157l-125 166l-123 -166h-158z" />
<glyph unicode="&#x2dc;" horiz-adv-x="925" d="M92 1270q93 159 242 162q77 0 158 -43q5 -3 17 -12t17.5 -13t16 -10.5t18.5 -9t19.5 -5t23.5 -2.5q25 0 44 12t28.5 25.5t23.5 40.5l134 -72q-43 -79 -99 -120t-141 -41q-72 0 -148 37q-7 4 -28 18t-30.5 19t-27 10.5t-34.5 5.5q-25 0 -44.5 -11.5t-29 -23.5t-27.5 -39z " />
<glyph unicode="&#x2000;" horiz-adv-x="932" />
<glyph unicode="&#x2001;" horiz-adv-x="1864" />
<glyph unicode="&#x2002;" horiz-adv-x="932" />
<glyph unicode="&#x2003;" horiz-adv-x="1864" />
<glyph unicode="&#x2004;" horiz-adv-x="621" />
<glyph unicode="&#x2005;" horiz-adv-x="466" />
<glyph unicode="&#x2006;" horiz-adv-x="310" />
<glyph unicode="&#x2007;" horiz-adv-x="310" />
<glyph unicode="&#x2008;" horiz-adv-x="233" />
<glyph unicode="&#x2009;" horiz-adv-x="372" />
<glyph unicode="&#x200a;" horiz-adv-x="103" />
<glyph unicode="&#x2010;" horiz-adv-x="985" d="M133 428v219h719v-219h-719z" />
<glyph unicode="&#x2011;" horiz-adv-x="985" d="M133 428v219h719v-219h-719z" />
<glyph unicode="&#x2012;" horiz-adv-x="985" d="M133 428v219h719v-219h-719z" />
<glyph unicode="&#x2013;" horiz-adv-x="1054" d="M10 440v187h1034v-187h-1034z" />
<glyph unicode="&#x2014;" horiz-adv-x="2013" d="M10 440v187h1993v-187h-1993z" />
<glyph unicode="&#x2018;" horiz-adv-x="677" d="M133 858l252 576h160l-152 -576h-260z" />
<glyph unicode="&#x2019;" horiz-adv-x="677" d="M133 858l152 576h260l-252 -576h-160z" />
<glyph unicode="&#x201a;" horiz-adv-x="677" d="M133 -303l152 575h260l-252 -575h-160z" />
<glyph unicode="&#x201c;" horiz-adv-x="1073" d="M133 858l252 576h160l-152 -576h-260zM528 858l252 576h160l-152 -576h-260z" />
<glyph unicode="&#x201d;" horiz-adv-x="1073" d="M133 858l152 576h260l-252 -576h-160zM528 858l152 576h260l-252 -576h-160z" />
<glyph unicode="&#x201e;" horiz-adv-x="1073" d="M133 -303l152 575h260l-252 -575h-160zM528 -303l152 575h260l-252 -575h-160z" />
<glyph unicode="&#x2022;" horiz-adv-x="655" d="M133 713q0 79 57.5 136.5t137.5 57.5t137 -57.5t57 -136.5q0 -80 -57.5 -137.5t-136.5 -57.5q-80 0 -137.5 58t-57.5 137z" />
<glyph unicode="&#x2026;" horiz-adv-x="1908" d="M195 0v272h274v-272h-274zM817 0v272h275v-272h-275zM1440 0v272h274v-272h-274z" />
<glyph unicode="&#x202f;" horiz-adv-x="372" />
<glyph unicode="&#x2039;" horiz-adv-x="835" d="M133 535l359 487h210l-331 -487l331 -490h-210z" />
<glyph unicode="&#x203a;" horiz-adv-x="835" d="M133 45l332 490l-332 487h211l358 -487l-358 -490h-211z" />
<glyph unicode="&#x205f;" horiz-adv-x="466" />
<glyph unicode="&#x20ac;" horiz-adv-x="1277" d="M82 498l33 157h139q0 107 2 127h-119l31 160h106q34 149 101 252q79 127 199.5 194.5t265.5 67.5q210 0 387 -94l-47 -238h-41q-116 80 -271 80q-117 0 -195 -74.5t-112 -187.5h586l-33 -160h-577q-7 -78 0 -127h553l-29 -157h-500q34 -119 113 -194t192 -75 q168 0 281 93h45v-265q-160 -80 -326 -80q-150 0 -278 65.5t-205 184.5q-76 116 -109 271h-192z" />
<glyph unicode="&#x2122;" horiz-adv-x="1792" d="M72 1280v152h614v-152h-229v-682h-156v682h-229zM770 598l39 733q3 43 30 73.5t70 33.5q41 1 75 -24t48 -62l174 -533l168 533q32 86 113 86q48 0 79.5 -29t32.5 -78l39 -733h-157l-21 559l-180 -559h-154l-180 547l-31 -547h-145z" />
<glyph unicode="&#xfb01;" horiz-adv-x="1175" d="M10 848v225h115v31q0 199 90 298t281 99q39 0 92 -9.5t87 -18.5t34 -11v-229h-35q-70 39 -152 39q-58 0 -97.5 -34t-39.5 -99v-66h625v-1073h-260v848h-365v-848h-260v848h-115zM756 1178v256h256v-256h-256z" />
<glyph unicode="&#xfb02;" horiz-adv-x="1265" d="M10 848v225h115v31q0 195 104 296t299 101q94 0 222 -34.5t206 -86.5v-1046q0 -65 39.5 -96t102.5 -31q59 -2 155 47h33v-229q-53 -18 -76 -25.5t-63 -15t-80 -7.5q-187 0 -279 103.5t-92 298.5v854q-76 42 -174 39q-58 0 -97.5 -34t-39.5 -99v-66h252v-225h-252v-848 h-260v848h-115z" />
</font>
</defs>
</svg>
